# FreeCAD v0.21 build2 Arch module
# http://www.freecad.org
mtllib iso-90deg-allparts.mtl
o crystal
usemtl color_00aaff
v 0.0 0.0 0.0
v -0.0 -33.0 33.0
v 4.0 -29.0 29.0
v 4.0 -0.0 0.0
v -0.0 33.0 33.0
v 4.0 29.0 29.0
f 2 1 4 3
f 5 1 2
f 5 2 3 6
f 3 4 6
f 1 5 6 4
o reflector
usemtl color_7c4c84
v -0.1 -33.24342 33.002001
v -0.1 0.0 -0.241421
v -0.1 33.24342 33.002001
v -0.0 -33.001999 32.901999
v -0.0 33.001999 32.901999
v 0.0 0.0 -0.1
v 4.002 -29.0 28.9
v 4.002 -0.0 -0.1
v 4.002 29.0 28.9
v 4.102 -29.041422 28.8
v 4.102 0.0 -0.241421
v 4.102 29.041422 28.8
vn 0.0 0.707107 0.707107
vn 0.0 0.707107 0.707107
vn 1.0 0.0 0.0
vn -1.0 -0.0 0.0
vn -0.0 -0.707107 0.707107
vn 0.0 -0.707107 0.707107
vn 0.707107 0.0 0.707107
vn 0.707102 1.1e-05 0.707112
vn 0.707107 -0.0 0.707107
vn 0.707107 -0.0 0.707107
vn 0.707107 -0.0 0.707107
vn 0.707102 -1.1e-05 0.707112
vn 0.707115 0.0 0.707099
vn 0.707115 -0.0 0.707099
vn -0.0 -0.707107 -0.707107
vn -1e-06 -0.707107 -0.707107
vn -1.0 -0.0 0.0
vn 1.0 0.0 0.0
vn 0.0 0.707107 -0.707107
vn -1e-06 0.707107 -0.707107
f 14//1 12//1 13//1 
f 13//2 12//2 10//2 
f 11//3 10//3 12//3 
f 15//4 14//4 13//4 
f 14//5 15//5 12//5 
f 15//6 11//6 12//6 
f 10//7 16//7 13//7 
f 7//8 16//8 10//8 
f 15//9 18//9 11//9 
f 13//10 18//10 15//10 
f 16//11 18//11 13//11 
f 11//12 18//12 9//12 
f 11//13 9//13 7//13 
f 10//14 11//14 7//14 
f 17//15 16//15 8//15 
f 16//16 7//16 8//16 
f 9//17 8//17 7//17 
f 18//18 16//18 17//18 
f 17//19 8//19 18//19 
f 18//20 8//20 9//20 
o pad
usemtl color_b2336b
v 3.979899 -33.0 29.020101
v 4.05061 -33.0 29.090812
v -0.05061 -33.0 33.05061
v 0.020101 -33.0 33.12132
v 3.979899 33.0 29.020101
v 4.05061 33.0 29.090812
v -0.05061 33.0 33.05061
v 0.020101 33.0 33.12132
vn -0.0 -1.0 0.0
vn 0.0 -1.0 0.0
vn 0.0 1.0 0.0
vn 0.0 1.0 0.0
vn 0.707109 0.0 -0.707104
vn 0.707109 0.0 -0.707104
vn -0.7071 0.0 0.707114
vn -0.7071 0.0 0.707114
vn -0.707107 -0.0 -0.707107
vn -0.707107 0.0 -0.707107
vn 0.707107 0.0 0.707107
vn 0.707107 0.0 0.707107
f 20//21 21//21 19//21 
f 20//22 22//22 21//22 
f 24//23 23//23 25//23 
f 24//24 25//24 26//24 
f 24//25 19//25 23//25 
f 24//26 20//26 19//26 
f 26//27 25//27 21//27 
f 26//28 21//28 22//28 
f 25//29 19//29 21//29 
f 25//30 23//30 19//30 
f 26//31 22//31 20//31 
f 26//32 20//32 24//32 
o sipms
usemtl color_ffbf05
v 4.227386 -35.0 28.914035
v 4.722361 -35.0 29.40901
v -0.722361 -35.0 33.863782
v -0.227386 -35.0 34.358757
v 4.227386 35.0 28.914035
v 4.722361 35.0 29.40901
v -0.722361 35.0 33.863782
v -0.227386 35.0 34.358757
vn -0.0 -1.0 0.0
vn 0.0 -1.0 0.0
vn 0.0 1.0 0.0
vn 0.0 1.0 0.0
vn 0.707106 0.0 -0.707107
vn 0.707106 0.0 -0.707107
vn -0.707108 0.0 0.707106
vn -0.707108 0.0 0.707106
vn -0.707107 -0.0 -0.707107
vn -0.707107 0.0 -0.707107
vn 0.707107 0.0 0.707107
vn 0.707107 0.0 0.707107
f 28//33 29//33 27//33 
f 28//34 30//34 29//34 
f 32//35 31//35 33//35 
f 32//36 33//36 34//36 
f 31//37 28//37 27//37 
f 32//38 28//38 31//38 
f 33//39 29//39 30//39 
f 34//40 33//40 30//40 
f 33//41 27//41 29//41 
f 33//42 31//42 27//42 
f 34//43 30//43 28//43 
f 34//44 28//44 32//44 
